<svg xmlns="http://www.w3.org/2000/svg" width="1200" height="900" viewBox="0 0 1200 900">
  <rect width="1200" height="900" fill="#15171b"/>
  <g transform="translate(110 130)">
    <rect width="980" height="560" rx="16" fill="#1c1f25" stroke="#2a2e36"/>
    <circle cx="36" cy="36" r="7" fill="#4a4f58"/>
    <circle cx="62" cy="36" r="7" fill="#4a4f58"/>
    <circle cx="88" cy="36" r="7" fill="#4a4f58"/>
    <g font-family="JetBrains Mono, ui-monospace, monospace" font-size="24">
      <text x="36" y="104" fill="#e8e8e8">$ python system_monitor.py --plot</text>
      <text x="36" y="146" fill="#8b929c">reading sensors via psutil...</text>
      <text x="36" y="212" fill="#e8e8e8">CPU  <tspan fill="#5fb573">##########----------</tspan>  52%</text>
      <text x="36" y="248" fill="#e8e8e8">MEM  <tspan fill="#5f8fb5">#######------------</tspan>  37%</text>
      <text x="36" y="284" fill="#e8e8e8">DSK  <tspan fill="#b5a25f">####---------------</tspan>  21%</text>
    </g>
    <g transform="translate(36 330)">
      <rect width="908" height="180" rx="10" fill="#15171b" stroke="#2a2e36"/>
      <polyline points="30,140 150,118 270,132 390,86 510,104 630,58 750,76 878,34"
        fill="none" stroke="#5fb573" stroke-width="5" stroke-linecap="round" stroke-linejoin="round"/>
      <g fill="#5fb573">
        <circle cx="150" cy="118" r="6"/><circle cx="390" cy="86" r="6"/>
        <circle cx="630" cy="58" r="6"/><circle cx="878" cy="34" r="6"/>
      </g>
      <text x="30" y="30" font-family="JetBrains Mono, ui-monospace, monospace" font-size="18" fill="#8b929c">cpu % · last 60s · matplotlib</text>
    </g>
  </g>
  <text x="600" y="806" text-anchor="middle" font-family="JetBrains Mono, ui-monospace, monospace" font-size="26" fill="#565b64" letter-spacing="3">PSUTIL · ARGPARSE · MATPLOTLIB</text>
</svg>
